<svg height="512" viewBox="0 0 128 128" width="512" xmlns="http://www.w3.org/2000/svg"><g id="_20_tutorial" data-name="20 tutorial"><path d="m18.464 96.728a2.07 2.07 0 0 1 -3.246-1.711v-54.611h-7.218v60.449h50.981c-3.765-3.619-9.862-8.545-17.8-9.032-11.237-.695-19.781 2.903-22.717 4.905z"/><path d="m112.782 40.406v54.611a2.07 2.07 0 0 1 -3.246 1.711c-2.935-2-11.469-5.6-22.721-4.905-7.934.487-14.031 5.413-17.8 9.032h50.985v-60.449z"/><path d="m108.634 91.511v-58.654a36.372 36.372 0 0 0 -42.56 2.478v4.947a22.775 22.775 0 0 1 0 45.36v12.289c4.159-4.024 11.086-9.676 20.492-10.257a46.47 46.47 0 0 1 22.068 3.837z"/><path d="m82.625 62.962a18.625 18.625 0 1 0 -18.625 18.625 18.65 18.65 0 0 0 18.625-18.625zm-6.471 1.794-17.713 10.235a2.071 2.071 0 0 1 -1.037.28 2.05 2.05 0 0 1 -1.037-.28 2.076 2.076 0 0 1 -1.037-1.791v-20.474a2.074 2.074 0 0 1 3.111-1.794l17.713 10.236a2.07 2.07 0 0 1 0 3.588z"/><path d="m41.227 62.962a22.81 22.81 0 0 1 20.7-22.68v-4.947a36.372 36.372 0 0 0 -42.56-2.478v58.654a46.47 46.47 0 0 1 22.068-3.837c9.406.581 16.333 6.233 20.492 10.257v-12.289a22.81 22.81 0 0 1 -20.7-22.68z"/><path d="m59.479 69.599 11.49-6.637-11.49-6.637z"/></g></svg>